<?xml version="1.0" encoding="UTF-8"?>
<svg width="112px" height="57px" viewBox="0 0 112 57" version="1.1" xmlns="http://www.w3.org/2000/svg" xmlns:xlink="http://www.w3.org/1999/xlink">
    <!-- Generator: Sketch 58 (84663) - https://sketch.com -->
    <title>Group 3</title>
    <desc>Created with Sketch.</desc>
    <g id="Page-1" stroke="none" stroke-width="1" fill="none" fill-rule="evenodd">
        <g id="6.1-Career_general/1920px1080px" transform="translate(-1118.000000, -533.000000)">
            <g id="Group-3" transform="translate(1118.000000, 533.000000)">
                <g id="style/Color/Main/Primary-1" fill="#FF5A00">
                    <g id="[-assets-]/[-asset-]-color/[-color-]-orange/[-tint-]-100">
                        <rect id="color" x="0" y="0" width="112" height="57"></rect>
                    </g>
                </g>
                <path d="M18.0554651,50 C27.8253654,50 28.9644287,45.0073703 28.9991494,38.5310325 L29,20.7084752 C29,14.3051785 27.991855,9 18.0511999,9 C8.18597495,9 7.03591447,14.2744341 7.0008588,20.4185104 L7,38.2059955 C7,44.5949186 7.98833548,49.8259538 17.5576254,49.9957462 L18.0554651,50 Z M18.0026778,42 C16.4124447,42 16.0260632,40.8228034 16.001307,37.3997707 L16,21.0315094 C16,17.2687275 16.3556507,16 18.0026778,16 C19.5973931,16 19.9753788,17.1277779 19.9988059,20.6416111 L20,37.0059454 C20,40.7966703 19.6523832,42 18.0026778,42 Z M43.0554651,50 C52.8253654,50 53.9644287,45.0073703 53.9991494,38.5310325 L54,20.7084752 C54,14.3051785 52.991855,9 43.0511999,9 C33.1859749,9 32.0359145,14.2744341 32.0008588,20.4185104 L32,38.2059955 C32,44.5949186 32.9883355,49.8259538 42.5576254,49.9957462 L43.0554651,50 Z M43.0026778,42 C41.4124447,42 41.0260632,40.8228034 41.001307,37.3997707 L41,21.0315094 C41,17.2687275 41.3556507,16 43.0026778,16 C44.5973931,16 44.9753788,17.1277779 44.9988059,20.6416111 L45,37.0059454 C45,40.7966703 44.6523832,42 43.0026778,42 Z M69.0767152,10 L57,10 L57,49 L65.6635719,49 L65.6635719,39.0953598 L69.0384128,39.0953598 C76.1996905,39.0953598 79,35.5744201 79,28.3095979 L79,20.6639425 C79,13.7061061 76.3783147,10.143411 69.5024098,10.0036864 L69.0767152,10 Z M70.9972292,21.2044714 L71,25.6254973 C71,29.6404707 70.2845016,31 68.1301736,31 L66,31 L66,17 L68.1301736,17 C70.2075613,17 70.9470577,18.1092333 70.9972292,21.2044714 L70.9972292,21.2044714 Z M91.6468052,50 C83.3565049,50.0005955 80.9457841,46.982242 81.0009199,36.7467361 L89.3522192,36.7467361 L89.3614694,37.5629704 C89.4271715,41.5873963 89.7941054,42.6639044 91.5611676,42.6639044 C92.9829652,42.6639044 93.5918044,41.7446511 93.5918044,39.805135 L93.5918044,38.7334705 C93.5918044,36.3030411 93.0272715,35.2502468 90.4715444,33.4752026 L87.8383356,31.6896499 C83.067338,28.4716668 81.3810067,25.502922 81.3810067,20.9718056 L81.3810067,18.9605664 C81.3810067,13.6124028 83.8116701,9 91.485504,9 C100.43567,9 101.724321,13.8156192 101.807611,21.3782385 L93.5308036,21.3782385 L93.5148609,20.6414679 C93.4138168,17.3665307 92.9261877,16.3486448 91.4825711,16.3486448 C90,16.3486448 89.6101868,17.6649263 89.5764239,19.0846769 L89.5739377,19.758488 C89.5739377,22.0321147 90.2244215,22.7678756 92.917859,24.736679 L96.2377324,27.1525571 C100.579962,30.3149551 102,32.9776811 102,38.0018948 L102,39.7830225 C102,46.5453298 99.0156333,50 91.6468052,50 Z" id="OOPS" fill="#000000" fill-rule="nonzero"></path>
            </g>
        </g>
    </g>
</svg>