<svg width="90px" height="90px" viewBox="0 0 90 90" version="1.1" xmlns="http://www.w3.org/2000/svg" xmlns:xlink="http://www.w3.org/1999/xlink">
    <defs>
        <path d="M48.1494,58.3152 C50.2524,58.3152 51.9054,57.9342 53.1024,57.1722 C54.2994,56.4072 54.8994,55.2192 54.8994,53.6082 L54.8994,53.4852 C54.8994,52.0392 54.3414,50.8932 53.2254,50.0472 C52.1124,49.2012 50.3184,48.7782 47.8374,48.7782 L36.8124,48.7782 L36.8124,58.3152 L48.1494,58.3152 Z M45.6084,40.8492 C47.7114,40.8492 49.3884,40.4892 50.6244,39.7662 C51.8634,39.0432 52.4844,37.8762 52.4844,36.2682 L52.4844,36.1422 C52.4844,34.6992 51.9504,33.5952 50.8704,32.8302 C49.7994,32.0652 48.2514,31.6842 46.2294,31.6842 L36.8124,31.6842 L36.8124,40.8492 L45.6084,40.8492 Z M27.1224,23.3202 L47.6154,23.3202 C52.6014,23.3202 56.3754,24.5982 58.9314,27.1602 C60.9084,29.1432 61.8984,31.6002 61.8984,34.5312 L61.8984,34.6572 C61.8984,35.8962 61.7424,36.9912 61.4394,37.9392 C61.1274,38.8902 60.7194,39.7452 60.2064,40.5072 C59.6934,41.2722 59.0964,41.9442 58.4184,42.5232 C57.7434,43.0992 57.0174,43.5942 56.2344,44.0052 C58.7424,44.9592 60.7164,46.2492 62.1534,47.8782 C63.5904,49.5102 64.3134,51.7692 64.3134,54.6612 L64.3134,54.7842 C64.3134,56.7672 63.9324,58.5012 63.1704,59.9862 C62.4084,61.4742 61.3134,62.7132 59.8914,63.7032 C58.4694,64.6932 56.7624,65.4402 54.7584,65.9352 C52.7604,66.4302 50.5464,66.6792 48.1134,66.6792 L27.1224,66.6792 L27.1224,23.3202 Z M9.84,80.1636 L80.163,80.1636 L80.163,9.8376 L9.84,9.8376 L9.84,80.1636 Z M0,0.0006 L90,0.0006 L90,90.0006 L0,90.0006 L0,0.0006 Z" id="billennium-logo-path-1"></path>
    </defs>
    <g id="billennium-logo-[-assets-]-logos" stroke="none" stroke-width="1" fill="none" fill-rule="evenodd">
        <g id="billennium-logo-[-assets-]/[-asset-]-logo/[-logo-]-sign/[-type-]-common/[-color-]-positive" transform="translate(-90.000000, -90.000000)">
            <g id="billennium-logo-logo" transform="translate(90.000000, 90.000000)">
                <mask id="billennium-logo-mask-2" fill="white">
                    <use xlink:href="#billennium-logo-path-1"></use>
                </mask>
                <use id="billennium-logo-shape" fill="#000000" xlink:href="#billennium-logo-path-1"></use>
                <g id="billennium-logo-[-assets-]/[-asset-]-color/[-color-]-black/[-tint-]-100" mask="url(#billennium-logo-mask-2)" fill="#000000">
                    <g transform="translate(-90.000000, -90.000000)" id="billennium-logo-color">
                        <rect x="0" y="0" width="270" height="270"></rect>
                    </g>
                </g>
            </g>
        </g>
    </g>
</svg>
