<svg xmlns:xlink="http://www.w3.org/1999/xlink" width="384px" height="96px" viewBox="0 0 128 32" version="1.1"
     xmlns="http://www.w3.org/2000/svg">
  <defs>
    <path
      d="M34.3594667,10.9962667 L34.3594667,8.2912 L37.7909333,8.2912 L37.7909333,10.9962667 L34.3594667,10.9962667 Z M34.3594667,23.7066667 L34.3594667,12.1898667 L37.7909333,12.1898667 L37.7909333,23.7066667 L34.3594667,23.7066667 Z M40.1514667,23.7077333 L40.1514667,8.2752 L43.5829333,8.2752 L43.5829333,23.7077333 L40.1514667,23.7077333 Z M45.9424,23.7077333 L45.9424,8.2752 L49.3738667,8.2752 L49.3738667,23.7077333 L45.9424,23.7077333 Z M75.37184,16.36768 L75.37184,23.7074133 L71.94144,23.7074133 L71.94144,17.1303467 C71.94144,15.5239467 71.3515733,14.6546133 69.9201067,14.6546133 C68.5675733,14.6546133 67.70144,15.4354133 67.70144,17.1314133 L67.70144,23.7074133 L64.2699733,23.7074133 L64.2699733,12.1895467 L67.50944,12.1895467 L67.50944,13.6594133 L67.7675733,13.6594133 C68.51744,12.42848 69.6929067,11.8279467 71.2865067,11.8279467 C73.9713067,11.8279467 75.37184,13.5751467 75.37184,16.36768 Z M88.57184,16.36768 L88.57184,23.7074133 L85.1403733,23.7074133 L85.1403733,17.1303467 C85.1403733,15.5239467 84.5505067,14.6546133 83.11904,14.6546133 C81.7675733,14.6546133 80.9003733,15.4354133 80.9003733,17.1314133 L80.9003733,23.7074133 L77.4689067,23.7074133 L77.4689067,12.1895467 L80.7083733,12.1895467 L80.7083733,13.6594133 L80.9665067,13.6594133 C81.7163733,12.42848 82.89184,11.8279467 84.4865067,11.8279467 C87.1713067,11.8279467 88.57184,13.5751467 88.57184,16.36768 Z M90.6698667,10.8405333 L90.6698667,8.2912 L94.1013333,8.2912 L94.1013333,10.8405333 L90.6698667,10.8405333 Z M90.6698667,23.7066667 L90.6698667,12.1898667 L94.1013333,12.1898667 L94.1013333,23.7066667 L90.6698667,23.7066667 Z M107.30048,12.1904 L107.30048,23.7072 L104.089813,23.7072 L104.089813,22.0122667 L103.849813,22.0122667 C103.133013,23.4448 101.947947,24.0688 100.230613,24.0688 C97.5874133,24.0688 96.1986133,22.3130667 96.1986133,19.5301333 L96.1986133,12.1904 L99.6290133,12.1904 L99.6290133,18.7664 C99.6290133,20.4666667 100.326613,21.2432 101.725013,21.2432 C103.09568,21.2432 103.869013,20.3098667 103.869013,18.8218667 L103.869013,12.1904 L107.30048,12.1904 Z M128,16.3786667 L128,23.7077333 L124.568533,23.7077333 L124.568533,17.1136 C124.568533,16.0864 124.274133,14.6549333 122.603733,14.6549333 C121.2192,14.6549333 120.413867,15.3877333 120.413867,17.1274667 L120.413867,23.7077333 L116.9824,23.7077333 L116.9824,17.1136 C116.9824,15.4538667 116.346667,14.6549333 115.005867,14.6549333 C113.655467,14.6549333 112.826667,15.3301333 112.826667,17.0666667 L112.826667,23.7077333 L109.396267,23.7077333 L109.396267,12.1898667 L112.634667,12.1898667 L112.634667,13.6597333 L112.891733,13.6597333 C113.632,12.4352 114.768,11.8282667 116.270933,11.8282667 C118.0256,11.8282667 119.2704,12.5258667 119.856,13.6597333 L120.462933,13.6597333 C121.256533,12.3605333 122.461867,11.8282667 123.963733,11.8282667 C126.593067,11.8282667 128,13.632 128,16.3786667 Z M3.49866667,28.5024 L28.5024,28.5024 L28.5024,3.4976 L3.49866667,3.4976 L3.49866667,28.5024 Z M0,0 L32,0 L32,32 L0,32 L0,0 Z M54.51872,16.6865067 L59.34112,16.6865067 C59.18432,15.47264 58.3373867,14.6267733 56.9645867,14.6267733 C55.6077867,14.6267733 54.7672533,15.4961067 54.51872,16.6865067 Z M62.7789867,20.1937067 C62.3576533,22.5745067 60.22112,24.0689067 57.1416533,24.0689067 C53.4392533,24.0689067 50.9624533,21.8715733 50.9624533,17.9729067 L50.9624533,17.90144 C50.9624533,14.06464 53.4104533,11.82784 56.96032,11.82784 C60.50272,11.82784 62.69472,14.00064 62.69472,17.72864 C62.69472,18.11264 62.67552,18.49664 62.64032,18.95424 L54.4792533,18.95424 C54.6669867,20.3889067 55.54912,21.2785067 57.16192,21.2785067 C58.1912533,21.2785067 58.90592,20.9435733 59.2600533,20.1937067 L62.7789867,20.1937067 Z M17.1197867,20.7338667 C17.86752,20.7338667 18.4552533,20.5984 18.8808533,20.3274667 C19.3064533,20.0554667 19.5197867,19.6330667 19.5197867,19.0602667 L19.5197867,19.0165333 C19.5197867,18.5034667 19.3213867,18.096 18.9245867,17.7941333 C18.5288533,17.4933333 17.88992,17.3429333 17.0088533,17.3429333 L13.0888533,17.3429333 L13.0888533,20.7338667 L17.1197867,20.7338667 Z M16.21632,14.5237333 C16.9640533,14.5237333 17.56032,14.3957333 18.0008533,14.1386667 C18.44032,13.8826667 18.66112,13.4677333 18.66112,12.8949333 L18.66112,12.8501333 C18.66112,12.3370667 18.4701867,11.9445333 18.08832,11.6736 C17.7064533,11.4005333 17.1560533,11.2650667 16.43712,11.2650667 L13.0888533,11.2650667 L13.0888533,14.5237333 L16.21632,14.5237333 Z M9.64352,8.2912 L16.92992,8.2912 C18.7037867,8.2912 20.0445867,8.74666667 20.9533867,9.6576 C21.65632,10.3626667 22.00832,11.2362667 22.00832,12.2784 L22.00832,12.3221333 C22.00832,12.7637333 21.95392,13.152 21.84512,13.4890667 C21.7341867,13.8272 21.58912,14.1312 21.40672,14.4021333 C21.22432,14.6752 21.01312,14.9130667 20.7720533,15.12 C20.5309867,15.3248 20.2728533,15.4997333 19.99552,15.6469333 C20.8861867,15.9861333 21.5880533,16.4448 22.0989867,17.0229333 C22.6109867,17.6032 22.8669867,18.4064 22.8669867,19.4346667 L22.8669867,19.4784 C22.8669867,20.1834667 22.73152,20.8 22.4605867,21.328 C22.1885867,21.8570667 21.80032,22.2976 21.29472,22.6496 C20.78912,23.0026667 20.1821867,23.2672 19.47072,23.4432 C18.7592533,23.6192 17.9720533,23.7077333 17.1069867,23.7077333 L9.64352,23.7077333 L9.64352,8.2912 Z"
      id="billennium-logo-path-1"></path>
  </defs>
  <g id="billennium-logo-Page-1" stroke="none" stroke-width="1" fill="none" fill-rule="evenodd">
    <g id="billennium-logo-Menu-Copy" transform="translate(-40.000000, -32.000000)">
      <g id="billennium-logo-Backgrounds-/-Light">
        <g id="billennium-logo-[-assets-]/[-asset-]-logo/[-logo-]-billennium/[-version-]-common/[-color-]-positive"
           transform="translate(40.000000, 32.000000)">
          <g id="billennium-logo">
            <mask id="billennium-logo-mask-2" fill="white">
              <use xlink:href="#billennium-logo-path-1"></use>
            </mask>
            <use id="billennium-logo-shape" fill="#000000" xlink:href="#billennium-logo-path-1"></use>
          </g>
        </g>
      </g>
    </g>
  </g>
</svg>
